<mxfile host="app.diagrams.net" modified="2023-05-07T12:52:04.530Z" agent="Mozilla/5.0 (Windows NT 10.0; Win64; x64) AppleWebKit/537.36 (KHTML, like Gecko) Chrome/112.0.0.0 Safari/537.36" etag="mS6F-EeFUml8YPUss83J" version="21.2.9" type="github">
  <diagram name="第 1 页" id="pd3jO1o8dFOGapf48qMI">
    <mxGraphModel dx="1877" dy="549" grid="1" gridSize="10" guides="1" tooltips="1" connect="1" arrows="1" fold="1" page="1" pageScale="1" pageWidth="827" pageHeight="1169" math="0" shadow="0">
      <root>
        <mxCell id="0" />
        <mxCell id="1" parent="0" />
        <mxCell id="g53zBblVRDCCoaM3avHb-7" value="蜜罐探针" style="rounded=0;whiteSpace=wrap;labelBackgroundColor=default;fontSize=17;" vertex="1" parent="1">
          <mxGeometry x="-230" y="336" width="110" height="60" as="geometry" />
        </mxCell>
        <mxCell id="g53zBblVRDCCoaM3avHb-14" value="蜜罐服务端" style="rounded=0;whiteSpace=wrap;html=1;labelBackgroundColor=default;verticalAlign=top;fontStyle=0;fontSize=21;" vertex="1" parent="1">
          <mxGeometry y="250" width="256" height="260" as="geometry" />
        </mxCell>
        <mxCell id="g53zBblVRDCCoaM3avHb-15" value="&lt;font style=&quot;font-size: 17px;&quot;&gt;反向代理模块&lt;/font&gt;" style="rounded=1;whiteSpace=wrap;html=1;verticalAlign=middle;" vertex="1" parent="1">
          <mxGeometry x="20" y="290" width="220" height="60" as="geometry" />
        </mxCell>
        <mxCell id="g53zBblVRDCCoaM3avHb-19" value="&lt;font style=&quot;font-size: 15px;&quot;&gt;蜜罐服务模块&lt;/font&gt;" style="rounded=1;whiteSpace=wrap;html=1;verticalAlign=top;arcSize=6;" vertex="1" parent="1">
          <mxGeometry x="20" y="352.5" width="216" height="140" as="geometry" />
        </mxCell>
        <mxCell id="g53zBblVRDCCoaM3avHb-20" value="SSH蜜罐" style="shape=parallelogram;perimeter=parallelogramPerimeter;whiteSpace=wrap;html=1;fixedSize=1;size=10;" vertex="1" parent="1">
          <mxGeometry x="42" y="386" width="90" height="40" as="geometry" />
        </mxCell>
        <mxCell id="g53zBblVRDCCoaM3avHb-26" value="&lt;font style=&quot;font-size: 21px;&quot;&gt;蜜罐管理端&lt;/font&gt;" style="rounded=0;whiteSpace=wrap;html=1;verticalAlign=top;" vertex="1" parent="1">
          <mxGeometry x="380" y="250" width="320" height="260" as="geometry" />
        </mxCell>
        <mxCell id="g53zBblVRDCCoaM3avHb-27" value="Web" style="rounded=1;whiteSpace=wrap;html=1;verticalAlign=top;arcSize=9;fontSize=15;" vertex="1" parent="1">
          <mxGeometry x="395" y="300" width="290" height="70" as="geometry" />
        </mxCell>
        <mxCell id="g53zBblVRDCCoaM3avHb-28" value="日志API接口" style="shape=parallelogram;perimeter=parallelogramPerimeter;whiteSpace=wrap;html=1;fixedSize=1;size=10;" vertex="1" parent="1">
          <mxGeometry x="405" y="325" width="90" height="35" as="geometry" />
        </mxCell>
        <mxCell id="g53zBblVRDCCoaM3avHb-30" value="日志统计" style="shape=parallelogram;perimeter=parallelogramPerimeter;whiteSpace=wrap;html=1;fixedSize=1;size=10;" vertex="1" parent="1">
          <mxGeometry x="500" y="325" width="80" height="35" as="geometry" />
        </mxCell>
        <mxCell id="g53zBblVRDCCoaM3avHb-33" value="日志存储" style="shape=parallelogram;perimeter=parallelogramPerimeter;whiteSpace=wrap;html=1;fixedSize=1;size=10;" vertex="1" parent="1">
          <mxGeometry x="585" y="325" width="80" height="35" as="geometry" />
        </mxCell>
        <mxCell id="g53zBblVRDCCoaM3avHb-34" value="&lt;font style=&quot;font-size: 15px;&quot;&gt;监控模块&lt;/font&gt;" style="rounded=1;whiteSpace=wrap;html=1;arcSize=10;verticalAlign=top;" vertex="1" parent="1">
          <mxGeometry x="395" y="373" width="130" height="130" as="geometry" />
        </mxCell>
        <mxCell id="g53zBblVRDCCoaM3avHb-35" value="探针心跳监控" style="shape=parallelogram;perimeter=parallelogramPerimeter;whiteSpace=wrap;html=1;fixedSize=1;size=10;" vertex="1" parent="1">
          <mxGeometry x="410" y="405" width="100" height="35" as="geometry" />
        </mxCell>
        <mxCell id="g53zBblVRDCCoaM3avHb-36" value="攻击行为监控" style="shape=parallelogram;perimeter=parallelogramPerimeter;whiteSpace=wrap;html=1;fixedSize=1;size=10;" vertex="1" parent="1">
          <mxGeometry x="410" y="452.5" width="100" height="35" as="geometry" />
        </mxCell>
        <mxCell id="g53zBblVRDCCoaM3avHb-37" value="&lt;font style=&quot;font-size: 16px;&quot;&gt;消息推送模块&lt;/font&gt;" style="rounded=1;whiteSpace=wrap;html=1;arcSize=10;verticalAlign=middle;" vertex="1" parent="1">
          <mxGeometry x="555" y="373" width="130" height="130" as="geometry" />
        </mxCell>
        <mxCell id="g53zBblVRDCCoaM3avHb-38" value="FTP蜜罐" style="shape=parallelogram;perimeter=parallelogramPerimeter;whiteSpace=wrap;html=1;fixedSize=1;size=10;" vertex="1" parent="1">
          <mxGeometry x="132" y="386" width="90" height="40" as="geometry" />
        </mxCell>
        <mxCell id="g53zBblVRDCCoaM3avHb-39" value="MySQL蜜罐" style="shape=parallelogram;perimeter=parallelogramPerimeter;whiteSpace=wrap;html=1;fixedSize=1;size=10;" vertex="1" parent="1">
          <mxGeometry x="36" y="440" width="90" height="40" as="geometry" />
        </mxCell>
        <mxCell id="g53zBblVRDCCoaM3avHb-40" value="Redis蜜罐" style="shape=parallelogram;perimeter=parallelogramPerimeter;whiteSpace=wrap;html=1;fixedSize=1;size=10;" vertex="1" parent="1">
          <mxGeometry x="126" y="440" width="90" height="40" as="geometry" />
        </mxCell>
        <mxCell id="g53zBblVRDCCoaM3avHb-42" value="" style="endArrow=classic;html=1;rounded=0;" edge="1" parent="1">
          <mxGeometry width="50" height="50" relative="1" as="geometry">
            <mxPoint x="-360" y="367.5" as="sourcePoint" />
            <mxPoint x="-250" y="367.5" as="targetPoint" />
          </mxGeometry>
        </mxCell>
        <mxCell id="g53zBblVRDCCoaM3avHb-43" value="攻击流量" style="edgeLabel;html=1;align=center;verticalAlign=middle;resizable=0;points=[];" vertex="1" connectable="0" parent="g53zBblVRDCCoaM3avHb-42">
          <mxGeometry x="-0.245" y="1" relative="1" as="geometry">
            <mxPoint x="11" as="offset" />
          </mxGeometry>
        </mxCell>
        <mxCell id="g53zBblVRDCCoaM3avHb-44" value="" style="endArrow=classic;startArrow=classic;html=1;rounded=0;align=left;" edge="1" parent="1">
          <mxGeometry width="50" height="50" relative="1" as="geometry">
            <mxPoint x="-110" y="365.5" as="sourcePoint" />
            <mxPoint x="-10" y="365.5" as="targetPoint" />
          </mxGeometry>
        </mxCell>
        <mxCell id="g53zBblVRDCCoaM3avHb-45" value="流量转发" style="edgeLabel;html=1;align=center;verticalAlign=middle;resizable=0;points=[];" vertex="1" connectable="0" parent="g53zBblVRDCCoaM3avHb-44">
          <mxGeometry x="0.4057" y="2" relative="1" as="geometry">
            <mxPoint x="-17" y="2" as="offset" />
          </mxGeometry>
        </mxCell>
        <mxCell id="g53zBblVRDCCoaM3avHb-46" value="" style="endArrow=classic;startArrow=classic;html=1;rounded=0;" edge="1" parent="1">
          <mxGeometry width="50" height="50" relative="1" as="geometry">
            <mxPoint x="270" y="373" as="sourcePoint" />
            <mxPoint x="370" y="374" as="targetPoint" />
          </mxGeometry>
        </mxCell>
        <mxCell id="g53zBblVRDCCoaM3avHb-47" value="日志信息传输" style="edgeLabel;html=1;align=center;verticalAlign=middle;resizable=0;points=[];" vertex="1" connectable="0" parent="g53zBblVRDCCoaM3avHb-46">
          <mxGeometry x="-0.1956" y="-2" relative="1" as="geometry">
            <mxPoint x="10" y="-3" as="offset" />
          </mxGeometry>
        </mxCell>
      </root>
    </mxGraphModel>
  </diagram>
</mxfile>
